# Blender 4.2.19 LTS
# www.blender.org
mtllib BloqueVidrio.mtl
o Cube
v -1.000000 -0.049695 1.000000
v -1.000000 1.950305 1.000000
v -1.000000 -0.049695 -1.000000
v -1.000000 1.950305 -1.000000
v 1.000000 -0.049695 1.000000
v 1.000000 1.950305 1.000000
v 1.000000 -0.049695 -1.000000
v 1.000000 1.950305 -1.000000
vn -1.0000 -0.0000 -0.0000
vn -0.0000 -0.0000 -1.0000
vn 1.0000 -0.0000 -0.0000
vn -0.0000 -0.0000 1.0000
vn -0.0000 -1.0000 -0.0000
vn -0.0000 1.0000 -0.0000
vt 0.995726 -0.000283
vt -0.001726 0.997169
vt -0.001726 -0.000283
vt 0.995726 0.001579
vt -0.001726 0.999031
vt -0.001726 0.001579
vt 0.995726 -0.000969
vt -0.001726 0.996484
vt -0.001726 -0.000969
vt 1.001726 -0.005453
vt 0.004274 0.991999
vt 0.004274 -0.005453
vt 0.996069 -0.000969
vt -0.001383 0.996484
vt -0.001383 -0.000969
vt 0.993179 -0.000969
vt -0.004273 0.996484
vt -0.004273 -0.000969
vt 0.995726 0.997169
vt 0.995726 0.999031
vt 0.995726 0.996484
vt 1.001726 0.991999
vt 0.996069 0.996484
vt 0.993179 0.996484
s 0
usemtl MinecraftTransparentGlass
f 2/1/1 3/2/1 1/3/1
f 4/4/2 7/5/2 3/6/2
f 8/7/3 5/8/3 7/9/3
f 6/10/4 1/11/4 5/12/4
f 7/13/5 1/14/5 3/15/5
f 4/16/6 6/17/6 8/18/6
f 2/1/1 4/19/1 3/2/1
f 4/4/2 8/20/2 7/5/2
f 8/7/3 6/21/3 5/8/3
f 6/10/4 2/22/4 1/11/4
f 7/13/5 5/23/5 1/14/5
f 4/16/6 2/24/6 6/17/6
