# Blender 4.2.19 LTS
# www.blender.org
mtllib Luna.mtl
o Cube
v -1.000000 2.220739 -1.000000
v 1.000000 2.220739 -1.000000
v -1.000000 2.220739 1.000000
v 1.000000 2.220739 1.000000
v -1.000000 0.220739 -1.000000
v 1.000000 0.220739 -1.000000
v -1.000000 0.220739 1.000000
v 1.000000 0.220739 1.000000
v -1.000000 2.220739 -1.000000
v 1.000000 2.220739 -1.000000
v -1.000000 2.220739 1.000000
v 1.000000 2.220739 1.000000
v -1.000000 0.220739 -1.000000
v 1.000000 0.220739 -1.000000
v -1.000000 0.220739 1.000000
v 1.000000 0.220739 1.000000
vn -1.0000 -0.0000 -0.0000
vn -0.0000 -0.0000 1.0000
vn -0.0000 -1.0000 -0.0000
vn 1.0000 -0.0000 -0.0000
vn -0.0000 1.0000 -0.0000
vn -0.0000 -0.0000 -1.0000
vt 0.500373 0.000000
vt 0.750124 0.333582
vt 0.500124 0.333333
vt 1.000868 0.667163
vt 0.749876 0.666915
vt 0.003249 0.332837
vt 0.249876 0.666418
vt 0.003001 0.666170
vt 0.499876 0.666667
vt 0.749627 1.000248
vt 0.499627 1.000000
vt 0.250124 0.333085
vt 0.750372 0.000249
vt 1.001116 0.333830
s 0
usemtl Material.001
f 5/1/1 3/2/1 1/3/1
f 3/2/2 8/4/2 4/5/2
f 7/6/3 6/7/3 8/8/3
f 2/9/4 8/10/4 6/11/4
f 1/3/5 4/5/5 2/9/5
f 5/12/6 2/9/6 6/7/6
f 13/1/1 11/2/1 9/3/1
f 11/2/2 16/4/2 12/5/2
f 15/6/3 14/7/3 16/8/3
f 10/9/4 16/10/4 14/11/4
f 9/3/5 12/5/5 10/9/5
f 13/12/6 10/9/6 14/7/6
f 5/1/1 7/13/1 3/2/1
f 3/2/2 7/14/2 8/4/2
f 7/6/3 5/12/3 6/7/3
f 2/9/4 4/5/4 8/10/4
f 1/3/5 3/2/5 4/5/5
f 5/12/6 1/3/6 2/9/6
f 13/1/1 15/13/1 11/2/1
f 11/2/2 15/14/2 16/4/2
f 15/6/3 13/12/3 14/7/3
f 10/9/4 12/5/4 16/10/4
f 9/3/5 11/2/5 12/5/5
f 13/12/6 9/3/6 10/9/6
